Coordinates
version=1
nRows=8
nColumns=40
inDegrees=yes

Units are S.I. units (second, meters, Newtons, ...)
If the header above contains a line with 'inDegrees', this indicates whether rotational values are in degrees (yes) or radians (no).

endheader
time	pelvis_tilt	pelvis_list	pelvis_rotation	pelvis_tx	pelvis_ty	pelvis_tz	hip_flexion_r	hip_adduction_r	hip_rotation_r	knee_angle_r	knee_angle_r_beta	ankle_angle_r	subtalar_angle_r	mtp_angle_r	hip_flexion_l	hip_adduction_l	hip_rotation_l	knee_angle_l	knee_angle_l_beta	ankle_angle_l	subtalar_angle_l	mtp_angle_l	lumbar_extension	lumbar_bending	lumbar_rotation	arm_flex_r	arm_add_r	arm_rot_r	elbow_flex_r	pro_sup_r	wrist_flex_r	wrist_dev_r	arm_flex_l	arm_add_l	arm_rot_l	elbow_flex_l	pro_sup_l	wrist_flex_l	wrist_dev_l
      1.16000000	     -4.73387363	      8.26520997	    -89.85920812	      0.22424145	      0.89499591	      0.14978532	    -11.05834136	      8.00914402	     -2.84317854	      5.25919002	      0.09179018	     12.28483119	      0.00000000	      0.00000000	     36.51839985	     -3.86895474	     -2.86097356	      3.51472921	      0.06134360	      0.40315012	      0.00000000	      0.00000000	      3.35017774	      3.82327897	     -0.07414006	      0.00000000	      0.00000000	      0.00000000	      0.00000000	      0.00000000	      0.00000000	      0.00000000	      0.00000000	      0.00000000	      0.00000000	      0.00000000	      0.00000000	      0.00000000	      0.00000000
      1.17000000	     -4.32700413	      8.34647273	    -89.86018677	      0.22576168	      0.89360221	      0.16462207	    -11.29215898	      7.35357705	     -3.15212877	      6.48914776	      0.11325699	     11.99888183	     -0.00000000	      0.00000000	     36.73144861	     -3.40850483	     -3.50435400	      4.88994191	      0.08534559	     -0.46314122	     -0.00000000	      0.00000000	      3.59004563	      3.33056759	     -0.07154476	     -0.00000000	     -0.00000000	      0.00000000	      0.00000000	      0.00000000	     -0.00000000	      0.00000000	      0.00000000	     -0.00000000	      0.00000000	      0.00000000	      0.00000000	     -0.00000000	     -0.00000000
      1.18000000	     -3.93937124	      8.36436498	    -89.86019756	      0.22730826	      0.89259558	      0.17956908	    -11.45205222	      6.69173078	     -3.53243662	      7.92967586	      0.13839895	     11.37689599	      0.00000000	      0.00000000	     36.87632083	     -3.00196773	     -4.08113647	      6.47024066	      0.11292700	     -1.52364434	      0.00000000	      0.00000000	      3.75830559	      2.85605206	     -0.07315921	      0.00000000	      0.00000000	      0.00000000	      0.00000000	      0.00000000	      0.00000000	      0.00000000	      0.00000000	      0.00000000	      0.00000000	      0.00000000	      0.00000000	      0.00000000	      0.00000000
      1.19000000	     -3.54884491	      8.33820480	    -89.86149629	      0.22895440	      0.89195725	      0.19465899	    -11.46133722	      5.98673613	     -3.97396950	      9.70357313	      0.16935930	     10.50005732	      0.00000000	      0.00000000	     36.94395061	     -2.60478272	     -4.52151036	      8.16486291	      0.14250374	     -2.56923303	      0.00000000	      0.00000000	      3.91825666	      2.39316397	     -0.08287158	      0.00000000	      0.00000000	      0.00000000	      0.00000000	      0.00000000	      0.00000000	      0.00000000	      0.00000000	      0.00000000	      0.00000000	      0.00000000	      0.00000000	      0.00000000	      0.00000000
      1.20000000	     -3.19150109	      8.29518786	    -89.86100239	      0.23063458	      0.89165807	      0.20977498	    -11.25166489	      5.27290380	     -4.46556719	     11.85228876	      0.20686146	      9.39110806	      0.00000000	      0.00000000	     36.95965731	     -2.24762164	     -4.78597885	      9.90761873	      0.17292057	     -3.58842419	      0.00000000	      0.00000000	      4.04735071	      1.97137589	     -0.11623550	      0.00000000	      0.00000000	      0.00000000	      0.00000000	      0.00000000	      0.00000000	      0.00000000	      0.00000000	      0.00000000	      0.00000000	      0.00000000	      0.00000000	      0.00000000	      0.00000000
      1.21000000	     -2.86946829	      8.12968881	    -89.86114023	      0.23235585	      0.89187435	      0.22499742	    -11.02273188	      4.56234884	     -4.94139420	     14.20202391	      0.24787208	      7.80664654	     -0.00000000	      0.00000000	     36.79174601	     -1.93800376	     -5.00001767	     11.64946545	      0.20332153	     -4.57404472	     -0.00000000	     -0.00000000	      4.04221023	      1.59440430	     -0.15029219	     -0.00000000	      0.00000000	      0.00000000	      0.00000000	      0.00000000	      0.00000000	      0.00000000	      0.00000000	     -0.00000000	      0.00000000	      0.00000000	      0.00000000	      0.00000000	     -0.00000000
      1.22000000	     -2.57781755	      7.92552226	    -89.86126464	      0.23411454	      0.89247229	      0.24021682	    -10.57337287	      3.82983238	     -5.43684335	     16.95193997	      0.29586717	      5.96407944	      0.00000000	      0.00000000	     36.51593298	     -1.65111310	     -5.10718875	     13.32324682	      0.23253452	     -5.39968845	      0.00000000	      0.00000000	      3.98600237	      1.26519202	     -0.20308768	      0.00000000	      0.00000000	      0.00000000	      0.00000000	      0.00000000	      0.00000000	      0.00000000	      0.00000000	      0.00000000	      0.00000000	      0.00000000	      0.00000000	      0.00000000	      0.00000000
      1.23000000	     -2.29047648	      7.72894303	    -89.86014326	      0.23598597	      0.89335916	      0.25536036	     -9.83445991	      3.04369591	     -5.90518628	     20.13149758	      0.35136092	      3.97571149	      0.00000000	      0.00000000	     36.16638106	     -1.34422443	     -5.11516992	     14.87813615	      0.25967246	     -6.03738211	      0.00000000	      0.00000000	      3.93855735	      0.95203156	     -0.26446311	      0.00000000	      0.00000000	      0.00000000	      0.00000000	      0.00000000	      0.00000000	      0.00000000	      0.00000000	      0.00000000	      0.00000000	      0.00000000	      0.00000000	      0.00000000	      0.00000000
